<svg data-v-0dd9719b="" version="1.0" xmlns="http://www.w3.org/2000/svg" xmlns:xlink="http://www.w3.org/1999/xlink" width="100%" height="100%" viewBox="0 0 340.000000 250.000000" preserveAspectRatio="xMidYMid meet" color-interpolation-filters="sRGB" style="margin: auto;"> <rect data-v-0dd9719b="" x="0" y="0" width="100%" height="100%" fill="#fff" fill-opacity="1" class="background"></rect> <rect data-v-0dd9719b="" x="0" y="0" width="100%" height="100%" fill="url(#watermark)" fill-opacity="1" class="watermarklayer"></rect> <g data-v-0dd9719b="" fill="#333" class="icon-text-wrapper icon-svg-group iconsvg" transform="translate(57.51000213675251,96.97885513305664)"><g class="iconsvg-imagesvg" transform="translate(0,0)"><g><rect fill="#333" fill-opacity="0" stroke-width="2" x="0" y="0" width="60" height="56.04229325063982" class="image-rect"></rect> <svg x="0" y="0" width="60" height="56.04229325063982" filtersec="colorsb8532907893" class="image-svg-svg primary" style="overflow: visible;"><svg xmlns="http://www.w3.org/2000/svg" viewBox="0.012398920021951199 0.03818526491522789 107.03923797607422 99.97853088378906"><path d="M14.64 26.68A26.67 26.67 0 0 1 53.52 3a26.69 26.69 0 0 1 38.91 23.68h-9.07A17.62 17.62 0 0 0 65.75 9.07 17.79 17.79 0 0 0 48.52 23a12.07 12.07 0 0 0-.27 2.55 7.78 7.78 0 0 0 1 4.21A4.23 4.23 0 0 0 52 31.57a7.36 7.36 0 0 0 1.5.14 7.06 7.06 0 0 0 1.64-.17 4.1 4.1 0 0 0 2.62-1.81 7.91 7.91 0 0 0 1-4.19 12.67 12.67 0 0 0-.34-2.88 17.43 17.43 0 0 0-3.32-6.9 13.91 13.91 0 0 1 7.9-4.63 26.41 26.41 0 0 1 4.31 9.52 21.34 21.34 0 0 1 .58 4.9 16.85 16.85 0 0 1-2.43 9 12.94 12.94 0 0 1-8.25 5.81 16 16 0 0 1-3.66.42 16.81 16.81 0 0 1-3.37-.35 13 13 0 0 1-8.44-5.75 16.72 16.72 0 0 1-2.54-9.13 21.29 21.29 0 0 1 .48-4.43 26.61 26.61 0 0 1 5.66-11.6 18.25 18.25 0 0 0-4-.45 17.6 17.6 0 0 0-17.6 17.61z" fill="#16ea9e"></path><path d="M94 29.38a26.68 26.68 0 0 1 .53 45.55 26.68 26.68 0 0 1-40.3 21.32l4.63-7.79A17.61 17.61 0 0 0 83 82.31a17.79 17.79 0 0 0-3.17-21.93 13.33 13.33 0 0 0-2-1.53 7.78 7.78 0 0 0-4.17-1.24 4.14 4.14 0 0 0-3 1.39 7.15 7.15 0 0 0-.89 1.22 7.8 7.8 0 0 0-.7 1.49 4.08 4.08 0 0 0 .23 3.17 7.85 7.85 0 0 0 3.08 3A12.63 12.63 0 0 0 75 69.12a17.51 17.51 0 0 0 7.62.66 14.07 14.07 0 0 1 0 9.1 26.49 26.49 0 0 1-10.38-1.15 22 22 0 0 1-4.52-2 16.93 16.93 0 0 1-6.5-6.7A13 13 0 0 1 60.46 59 16.15 16.15 0 0 1 62 55.61a15.87 15.87 0 0 1 2-2.72 13.05 13.05 0 0 1 9.24-4.32 16.71 16.71 0 0 1 9.16 2.49 21.48 21.48 0 0 1 3.6 2.67 26.68 26.68 0 0 1 7 10.79 17.61 17.61 0 0 0-3.71-27.34z" fill="#1a85f8"></path><path d="M51.12 96.19A26.66 26.66 0 0 1 11.7 73.38a26.69 26.69 0 0 1 2.23-45.51l4.33 8a17.59 17.59 0 0 0-7 23.88 17.78 17.78 0 0 0 20.43 8.45 12.54 12.54 0 0 0 2.36-1 7.74 7.74 0 0 0 3.2-2.94 4.16 4.16 0 0 0 .28-3.26A8.22 8.22 0 0 0 36 58.26a4.13 4.13 0 0 0-2.84-1.42 7.91 7.91 0 0 0-4.16 1.1 12.71 12.71 0 0 0-2.37 1.68 17.49 17.49 0 0 0-4.47 6.21 14 14 0 0 1-7.82-4.66 26.58 26.58 0 0 1 6.29-8.34 21.41 21.41 0 0 1 4-2.85 16.85 16.85 0 0 1 9.08-2.17 12.94 12.94 0 0 1 9 4.46 16.24 16.24 0 0 1 3.42 6.15 13 13 0 0 1-1 10.16 16.73 16.73 0 0 1-6.81 6.6 20.85 20.85 0 0 1-4.11 1.69 26.68 26.68 0 0 1-12.9.58 18.05 18.05 0 0 0 1.52 3.73 17.61 17.61 0 0 0 23.88 7z" fill="#f8cd0f"></path></svg></svg> <!----></g></g> <g transform="translate(67,3.9311447143554688)"><g data-gra="path-name" fill-rule="" class="tp-name iconsvg-namesvg"><g transform="scale(1)"><g><path d="M16.5-16.44L19.26-16.44Q21.06-16.44 22.29-17.94 23.52-19.44 24.33-21.6 25.14-23.76 25.5-26.1 25.86-28.44 25.86-30.18L25.86-30.18Q25.86-31.8 25.32-32.91 24.78-34.02 22.98-34.02L22.98-34.02 20.28-34.02 16.5-16.44ZM19.08-12.6L15.66-12.6 12.96 0 0 0 8.1-38.1 21.96-38.1Q25.38-38.1 28.2-37.74 31.02-37.38 33.06-36.3 35.1-35.22 36.24-33.21 37.38-31.2 37.38-27.84L37.38-27.84Q37.38-24.72 36.39-21.93 35.4-19.14 33.21-17.07 31.02-15 27.54-13.8 24.06-12.6 19.08-12.6L19.08-12.6ZM38.4-25.8L51.06-25.8 52.86-8.16 62.34-25.8 68.7-25.8 54.24 0Q52.08 3.78 49.86 5.82 47.64 7.86 45.03 8.82 42.42 9.78 39.27 9.93 36.12 10.08 32.1 10.08L32.1 10.08 33 5.94Q34.98 5.94 36.69 5.88 38.4 5.82 39.42 5.52L39.42 5.52Q40.8 5.16 41.4 4.23 42 3.3 42 1.5L42 1.5Q42 0.3 41.79-1.26 41.58-2.82 41.34-4.56L41.34-4.56 38.4-25.8ZM68.94-21.78L69.78-25.8Q72-26.28 73.68-26.88 75.36-27.48 76.77-28.38 78.18-29.28 79.47-30.6 80.76-31.92 82.26-33.84L82.26-33.84 88.44-33.84 86.7-25.8 91.38-25.8 90.6-21.78 85.86-21.78 83.4-10.08Q83.1-8.7 82.92-7.62 82.74-6.54 82.74-5.94L82.74-5.94Q82.74-4.74 83.61-4.44 84.48-4.14 86.88-4.14L86.88-4.14 85.98 0Q85.56 0.12 84.69 0.18 83.82 0.24 82.77 0.33 81.72 0.42 80.61 0.45 79.5 0.48 78.66 0.48L78.66 0.48Q77.16 0.48 75.72 0.27 74.28 0.06 73.14-0.57 72-1.2 71.31-2.4 70.62-3.6 70.62-5.64L70.62-5.64Q70.62-6.36 70.71-7.44 70.8-8.52 71.1-9.84L71.1-9.84 73.62-21.78 68.94-21.78ZM108.9-26.46L108.9-26.46Q116.04-26.46 119.28-23.94L119.28-23.94Q122.7-21.3 122.7-15.18L122.7-15.18Q122.7-11.4 121.44-8.37 120.18-5.34 117.9-3.36L117.9-3.36Q113.34 0.48 104.7 0.48L104.7 0.48Q97.32 0.48 94.14-2.34L94.14-2.34Q90.72-5.28 90.72-11.16L90.72-11.16Q90.72-15.06 92.31-18.24 93.9-21.42 96.9-23.52L96.9-23.52Q101.28-26.46 108.9-26.46ZM104.82-3.6L104.82-3.6Q106.32-3.6 107.43-5.28 108.54-6.96 109.2-9.39 109.86-11.82 110.19-14.43 110.52-17.04 110.52-18.96L110.52-18.96Q110.52-20.64 110.19-21.51 109.86-22.38 108.78-22.38L108.78-22.38Q107.16-22.38 105.99-20.64 104.82-18.9 104.1-16.5 103.38-14.1 103.05-11.58 102.72-9.06 102.72-7.5L102.72-7.5Q102.72-3.6 104.82-3.6ZM140.22-21.96L140.58-21.96Q141.84-23.16 143.4-24.18L143.4-24.18Q144.78-25.02 146.64-25.74 148.5-26.46 150.78-26.46L150.78-26.46Q153.9-26.46 155.94-24.87 157.98-23.28 157.98-20.52L157.98-20.52Q157.98-19.74 157.8-18.63 157.62-17.52 157.38-16.32 157.14-15.12 156.87-13.89 156.6-12.66 156.42-11.7L156.42-11.7 153.9 0 141.72 0 145.02-15.66Q145.14-16.44 145.32-17.25 145.5-18.06 145.5-18.72L145.5-18.72Q145.5-19.62 145.05-20.19 144.6-20.76 143.7-20.76L143.7-20.76Q142.62-20.76 141.63-19.98 140.64-19.2 140.1-18.66L140.1-18.66 136.14 0 123.9 0 129.36-25.8 139.14-25.8 140.22-21.96Z" transform="translate(0, 38.099998474121094)"></path></g> <!----> <!----> <!----> <!----> <!----> <!----> <!----></g></g> <!----></g></g><defs v-gra="od"></defs></svg>